<mxfile host="app.diagrams.net" modified="2022-07-25T10:21:42.847Z" agent="5.0 (Windows NT 6.2; Win64; x64) AppleWebKit/537.36 (KHTML, like Gecko) Chrome/103.0.0.0 Safari/537.36" etag="kPG8uR-4rsNLtynn9Jor" version="20.0.4" type="github">
  <diagram id="j9MXSjyxQ8_vLP87vsuB" name="Page-1">
    <mxGraphModel dx="773" dy="1519" grid="1" gridSize="10" guides="1" tooltips="1" connect="1" arrows="1" fold="1" page="1" pageScale="1" pageWidth="850" pageHeight="1100" math="0" shadow="0">
      <root>
        <mxCell id="0" />
        <mxCell id="1" parent="0" />
        <mxCell id="YALah8Ns1rX7MJPd0tN6-16" value="" style="ellipse;shape=cloud;whiteSpace=wrap;html=1;" vertex="1" parent="1">
          <mxGeometry x="400" y="-110" width="560" height="620" as="geometry" />
        </mxCell>
        <mxCell id="YALah8Ns1rX7MJPd0tN6-1" value="VRF1" style="ellipse;whiteSpace=wrap;html=1;aspect=fixed;fillColor=#ffe6cc;strokeColor=#d79b00;" vertex="1" parent="1">
          <mxGeometry x="320" y="58" width="80" height="80" as="geometry" />
        </mxCell>
        <mxCell id="YALah8Ns1rX7MJPd0tN6-2" value="" style="ellipse;whiteSpace=wrap;html=1;aspect=fixed;fillColor=#dae8fc;strokeColor=#6c8ebf;" vertex="1" parent="1">
          <mxGeometry x="640" y="60" width="80" height="80" as="geometry" />
        </mxCell>
        <mxCell id="YALah8Ns1rX7MJPd0tN6-3" value="VRFn" style="ellipse;whiteSpace=wrap;html=1;aspect=fixed;fillColor=#ffe6cc;strokeColor=#d79b00;" vertex="1" parent="1">
          <mxGeometry x="320" y="310" width="80" height="80" as="geometry" />
        </mxCell>
        <mxCell id="YALah8Ns1rX7MJPd0tN6-4" value="VRF2" style="ellipse;whiteSpace=wrap;html=1;aspect=fixed;fillColor=#ffe6cc;strokeColor=#d79b00;" vertex="1" parent="1">
          <mxGeometry x="320" y="190" width="80" height="80" as="geometry" />
        </mxCell>
        <mxCell id="YALah8Ns1rX7MJPd0tN6-5" value="VPCn" style="ellipse;whiteSpace=wrap;html=1;aspect=fixed;fillColor=#dae8fc;strokeColor=#6c8ebf;" vertex="1" parent="1">
          <mxGeometry x="640" y="310" width="80" height="80" as="geometry" />
        </mxCell>
        <mxCell id="YALah8Ns1rX7MJPd0tN6-6" value="VPC2" style="ellipse;whiteSpace=wrap;html=1;aspect=fixed;fillColor=#dae8fc;strokeColor=#6c8ebf;" vertex="1" parent="1">
          <mxGeometry x="640" y="190" width="80" height="80" as="geometry" />
        </mxCell>
        <mxCell id="YALah8Ns1rX7MJPd0tN6-7" value="VPC1" style="ellipse;whiteSpace=wrap;html=1;aspect=fixed;fillColor=#dae8fc;strokeColor=#6c8ebf;" vertex="1" parent="1">
          <mxGeometry x="640" y="60" width="80" height="80" as="geometry" />
        </mxCell>
        <mxCell id="YALah8Ns1rX7MJPd0tN6-8" value="VPC-Service" style="ellipse;whiteSpace=wrap;html=1;aspect=fixed;fillColor=#dae8fc;strokeColor=#6c8ebf;" vertex="1" parent="1">
          <mxGeometry x="480" y="190" width="80" height="80" as="geometry" />
        </mxCell>
        <mxCell id="YALah8Ns1rX7MJPd0tN6-10" value="" style="endArrow=classic;html=1;rounded=0;" edge="1" parent="1" source="YALah8Ns1rX7MJPd0tN6-7" target="YALah8Ns1rX7MJPd0tN6-8">
          <mxGeometry width="50" height="50" relative="1" as="geometry">
            <mxPoint x="640" y="120" as="sourcePoint" />
            <mxPoint x="600" y="190" as="targetPoint" />
          </mxGeometry>
        </mxCell>
        <mxCell id="YALah8Ns1rX7MJPd0tN6-11" value="" style="endArrow=classic;html=1;rounded=0;entryX=1;entryY=1;entryDx=0;entryDy=0;" edge="1" parent="1" target="YALah8Ns1rX7MJPd0tN6-8">
          <mxGeometry width="50" height="50" relative="1" as="geometry">
            <mxPoint x="639.9954399953492" y="360.0037050037788" as="sourcePoint" />
            <mxPoint x="542.0845600046507" y="439.55629499622114" as="targetPoint" />
          </mxGeometry>
        </mxCell>
        <mxCell id="YALah8Ns1rX7MJPd0tN6-12" value="" style="endArrow=classic;html=1;rounded=0;entryX=1;entryY=0.5;entryDx=0;entryDy=0;" edge="1" parent="1" target="YALah8Ns1rX7MJPd0tN6-8">
          <mxGeometry width="50" height="50" relative="1" as="geometry">
            <mxPoint x="639.9954399953492" y="230.00370500377883" as="sourcePoint" />
            <mxPoint x="542.0845600046507" y="309.55629499622114" as="targetPoint" />
          </mxGeometry>
        </mxCell>
        <mxCell id="YALah8Ns1rX7MJPd0tN6-13" value="" style="endArrow=classic;html=1;rounded=0;" edge="1" parent="1">
          <mxGeometry width="50" height="50" relative="1" as="geometry">
            <mxPoint x="485.9954399953492" y="253.44370500377883" as="sourcePoint" />
            <mxPoint x="394.2842712474619" y="344.7157287525381" as="targetPoint" />
          </mxGeometry>
        </mxCell>
        <mxCell id="YALah8Ns1rX7MJPd0tN6-14" value="" style="endArrow=classic;html=1;rounded=0;entryX=1;entryY=1;entryDx=0;entryDy=0;" edge="1" parent="1">
          <mxGeometry width="50" height="50" relative="1" as="geometry">
            <mxPoint x="491.71543999534924" y="201.7237050037788" as="sourcePoint" />
            <mxPoint x="400.00427124746216" y="100.00427124746213" as="targetPoint" />
          </mxGeometry>
        </mxCell>
        <mxCell id="YALah8Ns1rX7MJPd0tN6-15" value="" style="endArrow=classic;html=1;rounded=0;entryX=1;entryY=0.5;entryDx=0;entryDy=0;" edge="1" parent="1">
          <mxGeometry width="50" height="50" relative="1" as="geometry">
            <mxPoint x="478.9954399953492" y="232.0037050037788" as="sourcePoint" />
            <mxPoint x="399" y="232" as="targetPoint" />
          </mxGeometry>
        </mxCell>
        <mxCell id="YALah8Ns1rX7MJPd0tN6-17" value="DCGW" style="ellipse;whiteSpace=wrap;html=1;aspect=fixed;fillColor=#f8cecc;strokeColor=#b85450;" vertex="1" parent="1">
          <mxGeometry x="70" y="190" width="80" height="80" as="geometry" />
        </mxCell>
        <mxCell id="YALah8Ns1rX7MJPd0tN6-18" value="" style="endArrow=classic;html=1;rounded=0;" edge="1" parent="1">
          <mxGeometry width="50" height="50" relative="1" as="geometry">
            <mxPoint x="318.9954399953493" y="93.00370500377883" as="sourcePoint" />
            <mxPoint x="139" y="203" as="targetPoint" />
          </mxGeometry>
        </mxCell>
        <mxCell id="YALah8Ns1rX7MJPd0tN6-19" value="" style="endArrow=classic;html=1;rounded=0;entryX=1;entryY=1;entryDx=0;entryDy=0;" edge="1" parent="1" target="YALah8Ns1rX7MJPd0tN6-17">
          <mxGeometry width="50" height="50" relative="1" as="geometry">
            <mxPoint x="319.9954399953492" y="350.0037050037788" as="sourcePoint" />
            <mxPoint x="140" y="460" as="targetPoint" />
          </mxGeometry>
        </mxCell>
        <mxCell id="YALah8Ns1rX7MJPd0tN6-20" value="" style="endArrow=classic;html=1;rounded=0;entryX=1;entryY=0.5;entryDx=0;entryDy=0;" edge="1" parent="1" target="YALah8Ns1rX7MJPd0tN6-17">
          <mxGeometry width="50" height="50" relative="1" as="geometry">
            <mxPoint x="319.9954399953492" y="230.0037050037788" as="sourcePoint" />
            <mxPoint x="140" y="340" as="targetPoint" />
          </mxGeometry>
        </mxCell>
        <mxCell id="YALah8Ns1rX7MJPd0tN6-22" value="Multi subnets" style="shape=callout;whiteSpace=wrap;html=1;perimeter=calloutPerimeter;" vertex="1" parent="1">
          <mxGeometry x="480" y="130" width="80" height="70" as="geometry" />
        </mxCell>
      </root>
    </mxGraphModel>
  </diagram>
</mxfile>
